<?xml version="1.0" encoding="utf-8"?>
<!-- Generator: Adobe Illustrator 18.0.0, SVG Export Plug-In . SVG Version: 6.00 Build 0)  -->
<!DOCTYPE svg PUBLIC "-//W3C//DTD SVG 1.1//EN" "http://www.w3.org/Graphics/SVG/1.1/DTD/svg11.dtd">
<svg version="1.1" id="Layer_1" xmlns="http://www.w3.org/2000/svg" xmlns:xlink="http://www.w3.org/1999/xlink" x="0px" y="0px"
	 viewBox="0 0 1224 792" enable-background="new 0 0 1224 792" xml:space="preserve">
<g>
	<g>
		<g>
			<path fill="#E2231A" d="M30.1,486.4c-1.3,0-8.6,0-8.6,0s-0.6,0-0.6,0.6c0,0.6,0,4.1,0,4.1s0,0.6,0.6,0.6c0.7,0,3.7,0,3.7,0
				s0.5,0,0.5,0.5c0,0.5,0,13.6,0,13.6s0,0.5,0.5,0.5c0.5,0,4.7,0,4.7,0s0.4,0,0.4-0.5c0-0.5,0.1-18.2,0.1-18.2
				S31.4,486.4,30.1,486.4z"/>
			<path fill="#E2231A" d="M43.9,486.4c0,0-4.2,0-4.7,0c-0.5,0-0.5,0.5-0.5,0.5s-0.1,13.1,0,13.6c0,0.5-0.5,0.5-0.5,0.5
				s-3.1,0-3.7,0c-0.6,0-0.6,0.6-0.6,0.6s0,3.5,0,4.2c0,0.6,0.6,0.6,0.6,0.6s7.3,0,8.6,0c1.3,0,1.3-1.3,1.3-1.3s0-17.7,0-18.2
				C44.4,486.4,43.9,486.4,43.9,486.4z"/>
			<path fill="#E2231A" d="M51.2,477.2c-5.1-4.4-10.9-6.7-17.3-6.7c-7.2,0-13.5,2.5-18.6,7.5c-5.1,5-7.7,11.1-7.7,18.3
				c0,7.1,2.6,13.3,7.6,18.3c5,5.1,11.2,7.6,18.3,7.7c7.1,0,13.3-2.5,18.5-7.5c5.1-5,7.8-11.1,7.8-18.1
				C59.7,488.7,56.8,482.1,51.2,477.2z M48.6,511.4c-4.3,4.2-9.2,6.2-15.2,6.2c-5.9,0-10.8-2.1-15-6.3c-4.2-4.2-6.3-9.1-6.2-15
				c0-5.9,2.1-10.8,6.3-14.9c4.3-4.2,9.3-6.2,15.4-6.1c5.3,0,10,1.8,14.2,5.5c4.6,4.1,6.9,9.3,6.9,15.9
				C55,502.4,52.9,507.2,48.6,511.4z"/>
		</g>
		<g>
			<path fill="#E2231A" d="M488.1,525.6c-13.8,0-25,11.2-25,25s11.2,25,25,25c13.8,0,25-11.2,25-25S501.9,525.6,488.1,525.6z"/>
			<path fill="#E2231A" d="M486.5,504.9c16.7-4.7,35.9,5.8,40.2,19.1l117-231.3c22.5-45.3-24.3-76.2-24.3-76.2
				c0.6,25.2-7,40.1-7,40.1L486.5,504.9z"/>
		</g>
		<path fill="#E2231A" d="M173.9,286c-12.9-5.1-39.8-12.8-56.7-0.8c16.9,6.9,20.7,22.9,14.8,35.4L79.5,424.3
			c-22.8,45.5,20.6,75.4,20.6,75.4c21.4,14.8,70.4,15.6,102.4-12c10.3,15.4,28.6,24.9,53.9,24.9c25.6,0,52-16.7,75.3-35
			c0,0,0.1,0,0.1-0.1c6.8,9.1,15.8,21.2,34,27.8c35,12.8,84-0.9,102-36.1L533,338.9c22.5-45.5-24.4-76.7-24.4-76.7
			c0.6,25.2-7,40.1-7,40.1l-12.9,25.6c-2.1-20.4-21.9-37.4-44.3-39.7c-15.4-1.6-44.8,0.5-63.5,30.6l-52.4,104.8
			c-3.7,9.4-5.4,21.4-5,28.9c0.1,1.4,0.2,2.8,0.4,4.1c-11.8,10.3-17.5,13.7-23.5,17.2c-29.1,16.8-59.3,17.6-63.2-5.8
			c24.8-18.6,75.9-70,91.6-96.8c25.5-43.3,15.5-67.1-3.4-80.1c-16.3-11.3-62.7-9.3-82.8,41.1l-43,85.1c-8.8,17.7-9,39.1-5.2,49.7
			c-24.3,14.5-35.1,14.9-43.9,14.9c-51.6,0-27.5-45.2-27.4-45.4c0,0,54.2-109.1,55.3-110.9c45.9,0.5,54.1-45.6,54.1-45.6
			C219.3,285.8,200.1,294.8,173.9,286z M287,342.5c0,0,7.6-17.3,17.9-16.5c9.2,0.7,10.6,11.2,5.4,24.7
			c-11.8,30.3-49.2,67.3-69.9,84.3C241.8,431.3,287,342.5,287,342.5z M425.9,452.9c-7.6,17.8-24.4,37.2-46.3,26.9
			c-22.9-10.8-12.9-34,6.7-72.1l31.4-62.7c4.8-8.3,10.9-13.5,17.3-16.4c7.4-3.3,16-5.1,23.8-2.1c28.8,11.8,4.9,51,4.9,51
			L425.9,452.9z"/>
	</g>
	<g>
		<g>
			<path fill="#E2231A" d="M1194,305.6c1.3,0,8.6,0,8.6,0s0.6,0,0.6-0.6c0-0.6,0-4.1,0-4.1s0-0.6-0.6-0.6c-0.7,0-3.7,0-3.7,0
				s-0.5,0-0.5-0.5c0-0.5,0-13.6,0-13.6s0-0.5-0.5-0.5c-0.5,0-4.7,0-4.7,0s-0.4,0-0.4,0.5c0,0.5-0.1,18.2-0.1,18.2
				S1192.6,305.6,1194,305.6z"/>
			<path fill="#E2231A" d="M1180.1,305.6c0,0,4.2,0,4.7,0s0.5-0.5,0.5-0.5s0.1-13.1,0-13.6c0-0.5,0.5-0.5,0.5-0.5s3.1,0,3.7,0
				c0.6,0,0.6-0.6,0.6-0.6s0-3.5,0-4.2c0-0.6-0.6-0.6-0.6-0.6s-7.3,0-8.6,0c-1.3,0-1.3,1.3-1.3,1.3s0,17.7,0,18.2
				C1179.6,305.6,1180.1,305.6,1180.1,305.6z"/>
			<path fill="#E2231A" d="M1172.8,314.8c5.1,4.4,10.9,6.7,17.3,6.7c7.2,0,13.5-2.5,18.6-7.5c5.1-5,7.7-11.1,7.7-18.3
				c0-7.1-2.6-13.3-7.6-18.3c-5-5.1-11.2-7.6-18.3-7.7c-7.1,0-13.3,2.5-18.5,7.5c-5.1,5-7.8,11.1-7.8,18.1
				C1164.4,303.3,1167.2,309.9,1172.8,314.8z M1175.4,280.6c4.3-4.2,9.2-6.2,15.2-6.2c5.9,0,10.8,2.1,15,6.3c4.2,4.2,6.3,9.1,6.2,15
				c0,5.9-2.1,10.8-6.3,14.9c-4.3,4.2-9.3,6.2-15.4,6.1c-5.3,0-10-1.8-14.2-5.5c-4.6-4.1-6.9-9.3-6.9-15.9
				C1169.1,289.6,1171.1,284.8,1175.4,280.6z"/>
		</g>
		<g>
			<path fill="#E2231A" d="M735.9,266.4c13.8,0,25-11.2,25-25c0-13.8-11.2-25-25-25c-13.8,0-25,11.2-25,25
				C711,255.3,722.1,266.4,735.9,266.4z"/>
			<path fill="#E2231A" d="M737.5,287.1c-16.7,4.7-35.9-5.8-40.2-19.1l-117,231.3c-22.5,45.3,24.3,76.2,24.3,76.2
				c-0.6-25.2,7-40.1,7-40.1L737.5,287.1z"/>
		</g>
		<path fill="#E2231A" d="M1050.1,506c12.9,5.1,39.8,12.8,56.7,0.8c-16.9-6.9-20.7-22.9-14.8-35.4l52.5-103.7
			c22.8-45.5-20.6-75.4-20.6-75.4c-21.4-14.8-70.4-15.6-102.4,12c-10.3-15.4-28.6-24.9-53.9-24.9c-25.6,0-52,16.7-75.3,35
			c0,0-0.1,0-0.1,0.1c-6.8-9.1-15.8-21.2-34-27.8c-35-12.8-84,0.9-102,36.1L691,453.1c-22.5,45.5,24.4,76.7,24.4,76.7
			c-0.6-25.2,7-40.1,7-40.1l12.9-25.6c2.1,20.4,21.9,37.4,44.3,39.7c15.4,1.6,44.8-0.5,63.5-30.6l52.4-104.8
			c3.7-9.4,5.4-21.4,5-28.9c-0.1-1.4-0.2-2.8-0.4-4.1c11.8-10.3,17.5-13.7,23.5-17.2c29.1-16.8,59.3-17.6,63.2,5.8
			c-24.8,18.6-75.9,70-91.6,96.8c-25.5,43.3-15.5,67.1,3.4,80.1c16.3,11.3,62.7,9.3,82.8-41.1l43-85.1c8.8-17.7,9-39.1,5.2-49.7
			c24.3-14.5,35.1-14.9,43.9-14.9c51.6,0,27.5,45.2,27.4,45.4c0,0-54.2,109.1-55.3,110.9c-45.9-0.5-54.1,45.6-54.1,45.6
			C1004.7,506.2,1023.9,497.2,1050.1,506z M937,449.5c0,0-7.6,17.3-17.9,16.5c-9.2-0.7-10.6-11.2-5.4-24.7
			c11.8-30.3,49.2-67.3,69.9-84.3C982.2,360.7,937,449.5,937,449.5z M798.1,339.1c7.6-17.8,24.4-37.2,46.3-26.9
			c22.9,10.8,12.9,34-6.7,72.1L806.3,447c-4.8,8.3-10.9,13.5-17.3,16.4c-7.4,3.3-16,5.1-23.8,2.1c-28.8-11.8-4.9-51-4.9-51
			L798.1,339.1z"/>
	</g>
</g>
</svg>
